<svg width="50" height="50" viewBox="0 0 50 50" fill="none" xmlns="http://www.w3.org/2000/svg">
<path fill-rule="evenodd" clip-rule="evenodd" d="M25 18.2292C21.2605 18.2292 18.2291 21.2606 18.2291 25C18.2291 28.7394 21.2605 31.7708 25 31.7708C28.7394 31.7708 31.7708 28.7394 31.7708 25C31.7708 21.2606 28.7394 18.2292 25 18.2292ZM21.3541 25C21.3541 22.9865 22.9864 21.3542 25 21.3542C27.0135 21.3542 28.6458 22.9865 28.6458 25C28.6458 27.0135 27.0135 28.6458 25 28.6458C22.9864 28.6458 21.3541 27.0135 21.3541 25Z" fill="#606267"/>
<path fill-rule="evenodd" clip-rule="evenodd" d="M31.1389 10.1793L25 4.04033L18.861 10.1793H10.1792V18.8611L4.04028 25L10.1792 31.139V39.8208H18.861L25 45.9598L31.139 39.8208H39.8207V31.139L45.9597 25L39.8207 18.8611V10.1793H31.1389ZM20.1555 13.3043L25 8.45975L29.8445 13.3043H36.6957V20.1555L41.5403 25L36.6957 29.8446V36.6958H29.8445L25 41.5403L20.1555 36.6958H13.3042V29.8446L8.4597 25L13.3042 20.1555V13.3043H20.1555Z" fill="#606267"/>
</svg>
